<!-- icon666.com - MILLIONS vector ICONS FREE --><svg viewBox="0 0 64 64" xmlns="http://www.w3.org/2000/svg"><g id="Twotone"><path d="m14 19h40.6776a2 2 0 0 1 1.9779 2.2967l-2.4 17a2 2 0 0 1 -1.9779 1.7033h-34.4676a2 2 0 0 1 -1.99-1.801l-2.82-28.199" fill="#bddbff"></path><path d="m4.5 8h7.5a2 2 0 0 1 2 2v1a0 0 0 0 1 0 0h-9.5a1.5 1.5 0 0 1 -1.5-1.5 1.5 1.5 0 0 1 1.5-1.5z" fill="#bddbff"></path><circle cx="21" cy="50" fill="#bddbff" r="6"></circle><circle cx="21" cy="50" fill="#fff" r="2"></circle><circle cx="47" cy="50" fill="#bddbff" r="6"></circle><circle cx="47" cy="50" fill="#fff" r="2"></circle><circle cx="52" cy="23" fill="#fff" r="9"></circle><path d="m57 22h-4v-4a1 1 0 0 0 -2 0v4h-4a1 1 0 0 0 0 2h4v4a1 1 0 0 0 2 0v-4h4a1 1 0 0 0 0-2z" fill="#fff"></path><g fill="#3d9ae2"><path d="m28 20h1a1 1 0 0 0 0-2h-1a1 1 0 0 0 0 2z"></path><path d="m21 43a7 7 0 1 0 7 7 7.0085 7.0085 0 0 0 -7-7zm0 12a5 5 0 1 1 5-5 5.0059 5.0059 0 0 1 -5 5z"></path><path d="m21 47a3 3 0 1 0 3 3 3.0033 3.0033 0 0 0 -3-3zm0 4a1 1 0 1 1 1-1 1.0006 1.0006 0 0 1 -1 1z"></path><path d="m47 43a7 7 0 1 0 7 7 7.0085 7.0085 0 0 0 -7-7zm0 12a5 5 0 1 1 5-5 5.0059 5.0059 0 0 1 -5 5z"></path><path d="m47 47a3 3 0 1 0 3 3 3.0033 3.0033 0 0 0 -3-3zm0 4a1 1 0 1 1 1-1 1.0006 1.0006 0 0 1 -1 1z"></path><path d="m62 23a9.9915 9.9915 0 0 0 -18.6468-5h-10.3532a1 1 0 0 0 0 2h9.4613a10 10 0 0 0 -.26 5h-26.6961l-.5-5h9.9948a1 1 0 0 0 0-2h-10.1948l-.8052-8.0508v-1.9492a1 1 0 0 0 -1-1h-8.5a2.5 2.5 0 0 0 0 5h7.6949l2.63 26.2979a2.9858 2.9858 0 0 0 2.9851 2.7021h34.47a2.9876 2.9876 0 0 0 2.97-2.56l.9016-6.3545a10.0058 10.0058 0 0 0 5.8484-9.0855zm-19.1591 4a10.0514 10.0514 0 0 0 4.8291 5h-31.4647l-.5-5zm-30.8409-17h-7.5a.5.5 0 0 1 0-1h7.5zm40.28 29h-34.47a.9933.9933 0 0 1 -.9942-.8994l-.4105-4.1006h37.4547l-.5884 4.1494a.9964.9964 0 0 1 -.9916.8506zm-.28-8a8 8 0 1 1 8-8 8.0092 8.0092 0 0 1 -8 8z"></path><path d="m57 22h-4v-4a1 1 0 0 0 -2 0v4h-4a1 1 0 0 0 0 2h4v4a1 1 0 0 0 2 0v-4h4a1 1 0 0 0 0-2z"></path></g></g></svg>